<?xml version="1.0" encoding="utf-8"?>
<!-- Generator: Adobe Illustrator 16.0.0, SVG Export Plug-In . SVG Version: 6.00 Build 0)  -->
<!DOCTYPE svg PUBLIC "-//W3C//DTD SVG 1.1//EN" "http://www.w3.org/Graphics/SVG/1.1/DTD/svg11.dtd">
<svg version="1.1" id="Layer_1" xmlns="http://www.w3.org/2000/svg" xmlns:xlink="http://www.w3.org/1999/xlink" x="0px" y="0px"
	 width="24px" height="100px" viewBox="0 -13 24 100" enable-background="new 0 -13 24 100" xml:space="preserve">
<g>
	<g>
		
			<path fill="none" stroke="#000000" stroke-width="1.5" stroke-linecap="round" stroke-linejoin="round" stroke-miterlimit="10" d="
			M13.512,64c-4.965,0-8.989,4.029-8.989,9s4.024,9,8.989,9c3.127,0,5.879-1.602,7.488-4.025c-4.727-0.268-8.479-4.178-8.479-8.975
			c0-1.84,0.555-3.549,1.5-4.975C13.854,64.018,13.686,64,13.512,64L13.512,64z"/>
	</g>
	<g>
		
			<path fill="none" stroke="#000000" stroke-width="1.5" stroke-linecap="round" stroke-linejoin="round" stroke-miterlimit="10" d="
			M13.512-8C8.547-8,4.523-3.971,4.523,1c0,4.97,4.024,9,8.989,9c3.127,0,5.879-1.601,7.488-4.025
			C16.273,5.707,12.521,1.797,12.521-3c0-1.84,0.555-3.549,1.5-4.975C13.854-7.983,13.686-8,13.512-8L13.512-8z"/>
	</g>
	<g>
		<g>
			<path fill="none" stroke="#000000" stroke-width="1.5" stroke-miterlimit="10" d="M12.027,30c-3.867,0-7.001,3.133-7.001,7
				s3.134,7,7.001,7c3.864,0,6.999-3.133,6.999-7C19.025,33.134,15.893,30,12.027,30L12.027,30z"/>
		</g>
		<g>
			<path d="M11.989,26.001c-0.004,0-0.006,0-0.008,0s-0.002,0-0.002,0c-0.002,0-0.004,0-0.006,0s-0.002,0-0.004,0
				c-0.002,0-0.003,0-0.005,0c-0.001,0-0.002,0-0.003,0s-0.003,0-0.005,0s-0.002,0-0.003,0s-0.004,0-0.005,0
				c-0.001,0-0.003,0-0.003,0c-0.002,0-0.004,0-0.006,0s-0.002,0-0.004,0s-0.004,0-0.006,0c0,0,0,0-0.002,0
				c-0.003,0-0.005,0-0.008,0l0,0c-0.003,0-0.005,0-0.008,0c0,0-0.001,0-0.002,0c-0.002,0-0.004,0-0.006,0s-0.002,0-0.004,0
				s-0.004,0-0.004,0c-0.002,0-0.002,0-0.004,0H11.89c-0.002,0-0.002,0-0.004,0c-0.001,0-0.003,0-0.005,0c-0.001,0-0.002,0-0.003,0
				c-0.002,0-0.004,0-0.005,0s-0.002,0-0.003,0c-0.002,0-0.004,0-0.006,0h-0.002c-0.004,0-0.006,0-0.01,0l0,0
				c-0.002,0-0.006,0-0.008,0c-0.001,0-0.001,0-0.002,0c-0.002,0-0.004,0-0.006,0c-0.001,0-0.002,0-0.003,0
				c-0.002,0-0.004,0-0.006,0c-0.001,0-0.002,0-0.003,0c-0.002,0-0.004,0-0.006,0h-0.002c-0.002,0-0.004,0-0.006,0s-0.002,0-0.002,0
				c-0.002,0-0.004,0-0.006,0c-0.002,0-0.002,0-0.003,0c-0.003,0-0.005,0-0.008,0l0,0c-0.003,0-0.006,0-0.009,0l0,0
				c-0.003,0-0.006,0-0.008,0s-0.002,0-0.002,0c-0.002,0-0.004,0-0.006,0s-0.002,0-0.004,0c-0.002,0-0.004,0-0.006,0
				c-0.001,0-0.002,0-0.003,0c-0.002,0-0.003,0-0.005,0c-0.001,0-0.002,0-0.003,0c-0.002,0-0.004,0-0.006,0
				c-0.001,0-0.002,0-0.002,0c-0.003,0-0.005,0-0.007,0c0,0,0,0-0.002,0s-0.004,0-0.008,0l0,0c-0.006,0-0.011,0-0.017,0
				c0,0-0.001,0-0.002,0c-0.002,0-0.004,0-0.006,0c-0.001,0-0.003,0-0.003,0c-0.002,0-0.004,0-0.006,0c0,0,0,0-0.002,0
				s-0.004,0-0.006,0h-0.002c-0.002,0-0.005,0-0.007,0c-0.001,0-0.001,0-0.002,0c-0.002,0-0.004,0-0.006,0c-0.001,0-0.001,0-0.002,0
				c-0.006,0-0.011,0-0.017,0l0,0c-0.004,0-0.006,0-0.01,0l0,0c-0.003,0-0.006,0-0.008,0c-0.001,0-0.001,0-0.002,0
				c-0.002,0-0.004,0-0.007,0c0,0-0.001,0-0.002,0c-0.002,0-0.004,0-0.007,0c0,0,0,0-0.002,0s-0.004,0-0.006,0c0,0,0,0-0.002,0
				c-0.002,0-0.004,0-0.006,0h-0.002c-0.006,0-0.012,0-0.018,0.001l0,0c-0.003,0-0.006,0-0.008,0H11.56c-0.002,0-0.004,0-0.006,0
				c-0.002,0-0.002,0-0.002,0c-0.002,0-0.004,0-0.006,0c0,0-0.002,0-0.003,0c-0.002,0-0.004,0-0.006,0c-0.001,0-0.002,0-0.002,0
				c-0.002,0-0.004,0-0.006,0c0,0-0.001,0-0.002,0c-0.002,0-0.004,0-0.007,0h-0.002c-0.006,0-0.012,0-0.018,0c0,0,0,0-0.001,0
				c-0.003,0-0.005,0-0.007,0c-0.001,0-0.001,0-0.002,0s-0.004,0-0.006,0c-0.001,0-0.002,0-0.003,0c-0.003,0-0.003,0-0.005,0
				s-0.002,0-0.004,0s-0.004,0-0.004,0c-0.002,0-0.002,0-0.004,0s-0.002,0-0.005,0c-0.001,0-0.002,0-0.003,0
				c-0.002,0-0.004,0-0.006,0c0,0-0.001,0-0.002,0c-0.002,0-0.005,0-0.007,0h0.009c-0.004,0-0.006,0-0.008,0s-0.002,0-0.004,0
				s-0.004,0-0.004,0c-0.002,0-0.002,0-0.004,0s-0.002,0-0.005,0c-0.002,0-0.002,0-0.004,0c-0.001,0-0.003,0-0.004,0
				s-0.002,0-0.004,0s-0.003,0-0.004,0s-0.003,0-0.004,0c-0.003,0-0.003,0-0.005,0c0,0-0.002,0-0.004,0c0,0-0.002,0-0.004,0
				s-0.002,0-0.004,0s-0.004,0-0.006,0c-0.001,0-0.001,0-0.002,0c-0.002,0-0.005,0-0.008,0c-0.001,0-0.003,0-0.004,0
				s-0.002,0-0.004,0c-0.002,0-0.004,0-0.004,0c-0.002,0-0.002,0-0.004,0s-0.004,0-0.004,0c-0.002,0-0.002,0-0.004,0
				s-0.004,0-0.004,0c-0.002,0-0.004,0-0.005,0s-0.003,0-0.004,0s-0.003,0-0.004,0s-0.003,0-0.004,0s-0.002,0-0.003,0
				s-0.003,0-0.005,0c-0.001,0-0.003,0-0.003,0c-0.006,0-0.012,0.001-0.02,0.001c0,0-0.001,0-0.002,0c-0.002,0-0.004,0-0.005,0
				s-0.002,0-0.003,0c-0.002,0-0.003,0-0.005,0c-0.001,0-0.002,0-0.002,0c-0.002,0-0.005,0-0.007,0c0,0,0,0-0.002,0
				s-0.004,0-0.004,0c-0.002,0-0.002,0-0.002,0c-0.002,0-0.004,0-0.006,0h-0.002c-0.01,0-0.02,0.001-0.029,0.002l0,0
				c-0.002,0-0.004,0-0.006,0c-0.002,0,0,0-0.002,0c-0.002,0-0.004,0-0.006,0h-0.001c-0.002,0-0.004,0-0.007,0c0,0,0,0-0.001,0
				c-0.002,0-0.005,0-0.007,0l0,0c-0.062,0.004-0.124,0.009-0.186,0.015l0.045,0.498c0.314-0.028,0.636-0.043,0.953-0.043v-0.474
				H11.989L11.989,26.001z M3.964,29.487c-0.068,0.074-0.137,0.149-0.205,0.225l0,0c-0.001,0.001-0.003,0.003-0.005,0.005l0,0
				c-0.001,0.002-0.003,0.003-0.005,0.005l0,0c-0.001,0.002-0.003,0.003-0.004,0.005c0,0,0,0-0.001,0.001s-0.003,0.003-0.004,0.005
				c0,0,0,0-0.001,0.001c-0.002,0.001-0.002,0.003-0.004,0.005c0,0-0.002,0-0.002,0.001c0,0.002-0.002,0.003-0.004,0.005v0.001
				c-0.002,0.002-0.004,0.003-0.004,0.005c0,0,0,0.001-0.002,0.001c0,0.001-0.002,0.003-0.004,0.004c0,0-0.001,0.001-0.002,0.002
				s-0.002,0.003-0.003,0.004c0,0-0.001,0.002-0.002,0.002c-0.001,0.001-0.002,0.002-0.003,0.004l0,0
				c-0.002,0.002-0.004,0.005-0.007,0.008c-0.003,0.005-0.004,0.006-0.005,0.007c0,0.001-0.002,0.001-0.002,0.002
				c-0.002,0.002-0.002,0.003-0.004,0.004c0,0,0,0.001,0,0.002c-0.002,0.001-0.002,0.003-0.004,0.004
				c0,0.001-0.002,0.001-0.002,0.002c-0.002,0.001-0.002,0.002-0.004,0.004c0,0,0,0.001-0.002,0.002
				c0,0.001-0.002,0.003-0.004,0.004c0,0,0,0.001-0.001,0.001c-0.001,0.001-0.003,0.003-0.004,0.004c0,0,0,0.001-0.001,0.001
				c-0.001,0.001-0.003,0.003-0.004,0.005c0,0,0,0.001-0.001,0.001c-0.001,0.001-0.003,0.003-0.004,0.005c0,0,0,0.001-0.001,0.001
				c-0.001,0.002-0.003,0.003-0.004,0.005l0,0c-0.002,0.002-0.004,0.004-0.006,0.006l0,0c-0.002,0.002-0.002,0.004-0.004,0.006l0,0
				c-0.112,0.131-0.223,0.265-0.328,0.402l0.395,0.307c0.194-0.25,0.403-0.494,0.62-0.726L3.964,29.487L3.964,29.487z M1.524,37.697
				L1.026,37.73v0.002c0,0,0,0.002,0,0.004c0,0,0,0.002,0,0.004c0,0.002,0,0.004,0,0.004c0,0.002,0,0.002,0,0.004s0,0.004,0,0.004
				c0,0.002,0,0.004,0,0.006v0.002c0,0.002,0,0.004,0,0.006v0.002c0,0.002,0,0.004,0,0.008l0,0c0,0.004,0,0.006,0,0.01v0.002
				c0,0.002,0,0.004,0,0.006v0.002c0,0.002,0,0.004,0,0.006c0,0.002,0,0.002,0,0.002c0,0.002,0,0.004,0,0.006s0,0.002,0,0.004
				s0,0.004,0,0.006c0,0,0,0,0,0.002c0,0.002,0,0.004,0,0.006s0,0.002,0,0.002c0,0.002,0,0.004,0,0.006s0,0.002,0,0.002
				c0,0.004,0,0.006,0,0.008l0,0c0,0.01,0,0.018,0.002,0.025v0.002c0,0.002,0,0.004,0,0.008l0,0c0,0.002,0,0.006,0,0.008l0,0
				c0,0.002,0,0.006,0,0.008l0,0c0,0.002,0,0.006,0,0.008l0,0c0,0.004,0,0.006,0,0.01l0,0c0,0.012,0.002,0.021,0.003,0.033l0,0
				c0,0.004,0,0.006,0,0.01l0,0c0,0.002,0,0.004,0,0.008l0,0c0,0.002,0,0.006,0,0.008c0,0,0,0,0,0.002s0,0.004,0,0.008l0,0
				c0.001,0.018,0.003,0.033,0.005,0.051c0,0,0,0,0,0.002c0,0.004,0,0.006,0,0.008c0,0,0,0,0,0.002s0,0.004,0,0.006
				c0,0.002,0,0.002,0,0.002c0,0.002,0,0.006,0.001,0.008l0,0c0.001,0.016,0.003,0.029,0.004,0.043l0,0c0,0.004,0,0.006,0,0.01l0,0
				c0,0.002,0.001,0.006,0.001,0.008s0,0.002,0,0.002c0,0.002,0,0.006,0.001,0.008l0,0c0,0.004,0,0.006,0.001,0.008
				c0,0.002,0,0.002,0,0.002c0.001,0.014,0.003,0.027,0.004,0.043l0,0c0,0.002,0,0.006,0.001,0.008c0,0,0,0,0,0.002
				c0,0.002,0,0.004,0.001,0.008l0,0c0,0.004,0,0.006,0.001,0.01l0,0c0.003,0.018,0.005,0.033,0.007,0.051l0,0
				c0,0.004,0,0.006,0,0.01l0,0c0,0.002,0,0.004,0.002,0.008l0,0c0.017,0.148,0.037,0.297,0.06,0.443l0.493-0.078
				C1.581,38.334,1.546,38.016,1.524,37.697L1.524,37.697z M5.347,45.127l-0.318,0.387c0.094,0.076,0.188,0.15,0.283,0.223v0.003
				c0.002,0,0.004,0.004,0.006,0.004c0,0.002,0,0.002,0.002,0.002c0,0.002,0.002,0.002,0.004,0.004c0.001,0,0.002,0,0.002,0.002
				c0.001,0,0.002,0.002,0.004,0.002c0.001,0.002,0.002,0.002,0.003,0.004c0,0,0.002,0,0.002,0.002c0.001,0,0.003,0.002,0.004,0.002
				c0,0.003,0.001,0.003,0.002,0.003c0.001,0.002,0.003,0.002,0.004,0.004c0,0,0.001,0,0.003,0c0,0.002,0.002,0.004,0.004,0.004
				c0,0,0,0.002,0.002,0.002s0.002,0.002,0.004,0.004l0,0c0.153,0.117,0.311,0.229,0.471,0.338l0.281-0.414
				C5.849,45.52,5.591,45.328,5.347,45.127L5.347,45.127z M14.316,47.242c-0.31,0.07-0.623,0.127-0.938,0.168l0.063,0.496
				c0.021-0.004,0.041-0.006,0.062-0.008c0-0.002,0.001-0.002,0.001-0.002c0.002,0,0.004,0,0.007,0h0.002
				c0.002,0,0.004,0,0.006-0.002h0.002c0.002,0,0.004,0,0.006,0c0,0,0.002,0,0.004,0s0.004-0.002,0.005-0.002s0.003,0,0.004,0
				s0.003,0,0.005,0c0.001,0,0.002,0,0.003-0.002c0.002,0,0.003,0,0.007,0c0,0,0.002,0,0.004,0c0,0,0.002,0,0.004,0
				c0.002-0.002,0.004-0.002,0.004-0.002c0.002,0,0.002,0,0.004,0c0.003,0,0.006,0,0.009-0.002c0,0,0.001,0,0.002,0
				c0.002,0,0.004,0,0.006,0c0.001,0,0.002,0,0.003,0c0.002-0.003,0.004-0.003,0.006-0.003s0.002,0,0.004,0s0.002,0,0.004,0
				c0.002-0.002,0.002-0.002,0.004-0.002s0.004,0,0.004,0c0.002,0,0.004,0,0.005,0c0.003,0,0.004-0.002,0.006-0.002
				c0.001,0,0.002,0,0.003,0c0.002,0,0.004,0,0.006,0c0.001,0,0.001-0.002,0.002-0.002c0.002,0,0.006,0,0.008,0h0.002
				c0.002,0,0.006-0.002,0.008-0.002l0,0c0.015-0.002,0.027-0.004,0.043-0.006l0,0c0.002,0,0.006-0.002,0.009-0.002l0,0
				c0.003,0,0.006,0,0.009-0.002l0,0c0.243-0.037,0.484-0.084,0.725-0.14L14.316,47.242L14.316,47.242z M21.048,42.295
				c-0.159,0.273-0.334,0.543-0.519,0.803l0.406,0.289c0.123-0.172,0.239-0.348,0.354-0.525l0,0
				c0.001-0.004,0.003-0.006,0.004-0.008h0.001c0.001-0.002,0.002-0.004,0.003-0.006c0.001,0,0.001-0.002,0.002-0.002
				c0.001-0.002,0.002-0.004,0.003-0.006c0,0,0.003,0,0.003-0.002s0.002-0.002,0.002-0.004c0.002,0,0.002-0.002,0.002-0.004
				c0.002,0,0.002-0.002,0.002-0.002c0.002-0.002,0.002-0.004,0.002-0.006c0.002,0,0.002-0.002,0.004-0.002
				c0-0.002,0-0.004,0.002-0.004c0-0.002,0-0.002,0.002-0.004c0,0,0.002-0.002,0.002-0.004c0.001,0,0.002-0.002,0.002-0.002
				c0.001-0.002,0.002-0.005,0.003-0.005c0-0.002,0.001-0.002,0.001-0.004c0.001,0,0.002-0.002,0.003-0.004
				c0.001,0,0.001-0.002,0.002-0.002c0.001-0.002,0.002-0.004,0.003-0.004c0-0.002,0-0.002,0.001-0.002
				c0.001-0.002,0.002-0.004,0.003-0.007c0-0.002,0-0.002,0-0.002c0.049-0.075,0.096-0.153,0.141-0.231L21.048,42.295L21.048,42.295
				z M22.521,33.856L22.042,34c0.09,0.303,0.167,0.613,0.229,0.926l0.488-0.098c-0.037-0.193-0.08-0.385-0.131-0.574v-0.002
				c-0.001-0.002-0.002-0.004-0.002-0.006c0,0-0.001,0-0.001-0.002s-0.001-0.004-0.001-0.006c-0.001-0.002-0.001-0.002-0.001-0.002
				c0-0.002-0.001-0.004-0.001-0.006c-0.001,0-0.001-0.002-0.001-0.002c-0.001-0.002-0.001-0.004-0.002-0.006c0,0,0,0,0-0.002
				c-0.001-0.002-0.001-0.004-0.002-0.004c0-0.002,0-0.002,0-0.004c-0.001,0-0.001-0.002-0.002-0.004c0,0,0-0.002-0.001-0.002
				c0-0.002,0-0.004-0.001-0.006c0,0,0-0.002-0.001-0.004c0,0,0-0.002-0.002-0.004s-0.002-0.006-0.004-0.01l0,0
				c0-0.002,0-0.004,0-0.006c-0.002,0-0.002-0.002-0.002-0.002c0-0.002,0-0.004,0-0.004c-0.002-0.002-0.002-0.002-0.002-0.002
				c0-0.002,0-0.004-0.002-0.006c0,0,0,0,0-0.002s0-0.002-0.002-0.004c0-0.002,0-0.002,0-0.004s0-0.004-0.002-0.006c0,0,0,0,0-0.002
				s0-0.004-0.002-0.006l0,0c0-0.002-0.002-0.004-0.002-0.008l0,0C22.573,34.035,22.548,33.945,22.521,33.856L22.521,33.856z
				 M16.893,27.154l-0.225,0.447c0.283,0.142,0.562,0.298,0.833,0.465l0.265-0.425c-0.051-0.031-0.101-0.061-0.148-0.091l0,0
				c-0.002-0.001-0.006-0.003-0.008-0.004l0,0c-0.004-0.001-0.006-0.002-0.008-0.004l0,0c-0.002-0.001-0.004-0.002-0.006-0.004
				c-0.002,0-0.002,0-0.002,0c-0.002-0.001-0.004-0.002-0.006-0.003c-0.001,0-0.001,0-0.001,0c-0.003-0.001-0.005-0.002-0.007-0.004
				c0,0,0,0-0.001,0c-0.002-0.001-0.004-0.002-0.006-0.003c0,0-0.001,0-0.001-0.001c-0.002-0.001-0.004-0.002-0.008-0.004l0,0
				c-0.006-0.004-0.015-0.008-0.021-0.013c0,0-0.001,0-0.001-0.001c-0.002-0.001-0.004-0.002-0.006-0.003
				c-0.001,0-0.002-0.001-0.002-0.001c-0.002-0.001-0.003-0.001-0.007-0.002c0,0-0.002-0.001-0.002-0.002S17.523,27.5,17.523,27.5
				c-0.002,0-0.002-0.001-0.004-0.002c-0.002,0-0.002-0.001-0.004-0.002c0,0-0.002-0.001-0.005-0.002
				c-0.001-0.001-0.002-0.001-0.003-0.002s-0.003-0.001-0.004-0.002c-0.001,0-0.002-0.001-0.003-0.001
				c-0.001-0.001-0.003-0.001-0.004-0.002c-0.001,0-0.002-0.001-0.003-0.001c-0.002-0.001-0.003-0.002-0.004-0.002
				s-0.002-0.001-0.004-0.001c-0.002-0.001-0.004-0.002-0.006-0.003c0,0,0,0-0.002-0.001s-0.002-0.002-0.004-0.003
				c-0.002,0-0.002,0-0.002-0.001c-0.002-0.001-0.004-0.002-0.006-0.003c0,0-0.001,0-0.001-0.001
				c-0.002-0.001-0.004-0.002-0.006-0.003h-0.001c-0.021-0.013-0.045-0.026-0.066-0.039l0,0c-0.002-0.001-0.004-0.002-0.008-0.004
				l0,0C17.227,27.328,17.061,27.238,16.893,27.154L16.893,27.154z"/>
		</g>
	</g>
</g>
</svg>
