<?xml version="1.0" encoding="utf-8"?>
<!-- Generator: Adobe Illustrator 16.0.0, SVG Export Plug-In . SVG Version: 6.00 Build 0)  -->
<!DOCTYPE svg PUBLIC "-//W3C//DTD SVG 1.1//EN" "http://www.w3.org/Graphics/SVG/1.1/DTD/svg11.dtd">
<svg version="1.1" id="Layer_1" xmlns="http://www.w3.org/2000/svg" xmlns:xlink="http://www.w3.org/1999/xlink" x="0px" y="0px"
	 width="30px" height="30px" viewBox="0 0 30 30" enable-background="new 0 0 30 30" xml:space="preserve">
<g>
	<path fill="#FFDF22" d="M15.002,29C7.281,29,1,22.72,1,15C1,7.28,7.281,1,15.002,1C22.721,1,29,7.28,29,15
		C29,22.72,22.721,29,15.002,29z"/>
	<path d="M15.002,2C22.169,2,28,7.832,28,15c0,7.168-5.831,13-12.998,13C7.833,28,2,22.168,2,15C2,7.832,7.833,2,15.002,2 M15.002,0
		C6.715,0,0,6.714,0,15c0,8.287,6.715,15,15.002,15C23.28,30,30,23.286,30,15C30,6.714,23.285,0,15.002,0L15.002,0z"/>
</g>
<g>
	<path d="M7,9h2.677l1.447,4.88h0.033L12.638,9h2.558v12h-1.884v-8.701h-0.033l-1.447,5.082h-1.447l-1.482-5.065H8.868V21H7V9z"/>
	<path d="M17,9h3.603c1.698,0,2.692,0.993,2.692,3.047c0,1.615-0.656,2.541-1.583,2.793v0.068c1.062,0.269,1.649,1.244,1.649,2.727
		c0,2.322-1.094,3.365-2.676,3.365H17V9z M20.03,14.066c0.724,0,1.161-0.539,1.161-1.75c0-1.111-0.405-1.598-1.027-1.598h-1.061
		v3.349H20.03z M20.164,19.267c0.69,0,1.061-0.64,1.061-1.767c0-1.194-0.454-1.7-1.178-1.7h-0.943v3.467H20.164z"/>
</g>
</svg>
