<?xml version="1.0" encoding="utf-8"?>
<!-- Generator: Adobe Illustrator 16.0.0, SVG Export Plug-In . SVG Version: 6.00 Build 0)  -->
<!DOCTYPE svg PUBLIC "-//W3C//DTD SVG 1.1//EN" "http://www.w3.org/Graphics/SVG/1.1/DTD/svg11.dtd">
<svg version="1.1" id="Layer_1" xmlns="http://www.w3.org/2000/svg" xmlns:xlink="http://www.w3.org/1999/xlink" x="0px" y="0px"
	 width="64px" height="34px" viewBox="0 0 64 34" enable-background="new 0 0 64 34" xml:space="preserve">
<path fill-rule="evenodd" clip-rule="evenodd" fill="#231F20" d="M12.503,27.643c0.896,0,1.625,0.73,1.625,1.627
	s-0.729,1.625-1.625,1.625s-1.626-0.729-1.626-1.625S11.606,27.643,12.503,27.643z M12.503,26.523c-1.517,0-2.746,1.23-2.746,2.746
	s1.229,2.746,2.746,2.746c1.516,0,2.746-1.23,2.746-2.746S14.019,26.523,12.503,26.523z M40.243,27.643
	c0.896,0,1.627,0.73,1.627,1.627s-0.73,1.625-1.627,1.625s-1.625-0.729-1.625-1.625S39.347,27.643,40.243,27.643z M40.243,26.523
	c-1.516,0-2.745,1.23-2.745,2.746s1.229,2.746,2.745,2.746c1.517,0,2.746-1.23,2.746-2.746S41.76,26.523,40.243,26.523z
	 M62.089,8.011c0.037,0.008,0.074,0.012,0.11,0.012c0.11,0,0.218-0.032,0.311-0.094c0.124-0.083,0.21-0.211,0.239-0.356l0.237-1.188
	c0.028-0.146-0.001-0.297-0.083-0.42c-0.082-0.124-0.211-0.21-0.356-0.239l-10.634-2.13c-0.316-0.643-0.977-1.088-1.74-1.088H14.29
	c-2.319-0.06-3.853,1.112-4.215,3.209l-1.607,9.315c-0.001,0.004-0.002,0.008-0.002,0.013c-0.073,0.487-0.57,0.942-1.059,0.973
	l-4.583,0.249C1.759,16.333,0.94,17.254,1,18.32l0.536,9.604c0.06,1.051,0.963,1.906,2.016,1.906h4.688
	c0.31,0,0.561-0.252,0.561-0.561c0-2.043,1.66-3.703,3.703-3.703c2.041,0,3.703,1.66,3.703,3.703c0,0.309,0.25,0.561,0.56,0.561
	H35.98c0.31,0,0.56-0.252,0.56-0.561c0-2.043,1.662-3.703,3.703-3.703c2.043,0,3.703,1.66,3.703,3.703
	c0,0.309,0.252,0.561,0.561,0.561h6.82h11.082c0.309,0,0.559-0.252,0.559-0.561v-1.211c0-0.309-0.25-0.561-0.559-0.561h-0.786
	v-4.051l0,0v-4.926l0,0v-0.23h0.786c0.309,0,0.559-0.25,0.559-0.559v-1.211c0-0.31-0.25-0.56-0.559-0.56h-0.786V7.918L62.089,8.011z
	 M11.54,10.734l0.73-3.547C12.394,6.583,13,6.09,13.616,6.09h34.91c0.617,0,1.121,0.504,1.121,1.119v3.501
	c0,0.616-0.504,1.12-1.121,1.12H12.434C11.817,11.831,11.415,11.337,11.54,10.734z M49.647,26.502c0,0.617-0.504,1.121-1.121,1.121
	h-1.297c-0.969,0-1.619-0.631-2.151-1.27c-0.8-0.961-2.559-2.471-4.835-2.471c-2.552,0-3.846,1.576-4.43,2.246
	c-0.582,0.672-1.264,1.494-2.762,1.494H20.496c-1.782,0-2.694-0.699-3.649-1.701c-0.557-0.584-1.986-1.951-4.413-1.957
	c-1.438-0.004-2.798,0.654-3.46,1.293c-0.166,0.16-0.459,0.17-0.345-0.387l1.993-9.682h0.01c0.152-0.573,0.736-1.033,1.33-1.033
	h36.576c0.617,0,1.12,0.504,1.119,1.12L49.647,26.502z M52.112,18.291h3.63l-3.63,3.631V18.291z M52.112,23.506l5.213-5.215h3.178
	l-8.391,8.391V23.506z M60.503,27.498h-2.699l2.699-2.699V27.498z M60.503,23.217l-4.283,4.281h-3.342l7.625-7.625V23.217z
	 M60.503,15.961h-8.391V6.013l8.391,1.681V15.961z"/>
</svg>
