<svg width="47px" height="45px" viewBox="25 25 47 45" version="1.1" xmlns="http://www.w3.org/2000/svg" xmlns:xlink="http://www.w3.org/1999/xlink">
	<!-- Generator: Sketch 39.1 (31720) - http://www.bohemiancoding.com/sketch -->
	<desc>Created with Sketch.</desc>
	<defs></defs>
	<path d="M47.6642116,27.4516802 C48.3988036,25.5161066 49.6011027,25.5161066 50.3356946,27.4516802 L54.1996897,37.6309451 C54.9342817,39.5667069 57.2272701,41.2325725 59.2951568,41.3330777 L70.170242,41.8623303 C72.2381286,41.9628355 72.6096594,43.1062242 70.9957404,44.403194 L62.5086907,51.2232489 C60.8947717,52.5202187 60.0190206,55.2157928 60.5622008,57.2134764 L63.4196374,67.719854 C63.9630058,69.7175376 62.9903255,70.4242741 61.2583975,69.2901078 L52.1493067,63.3260418 C50.4171905,62.1920637 47.5827158,62.1920637 45.8507878,63.3260418 L36.741697,69.2901078 C35.0095807,70.4242741 34.0369004,69.7175376 34.5802689,67.719854 L37.4377055,57.2134764 C37.9810739,55.2157928 37.1051346,52.5202187 35.4914038,51.2232489 L27.0041659,44.403194 C25.3904351,43.1062242 25.7617776,41.9628355 27.8298526,41.8623303 L38.7047495,41.3330777 C40.7726362,41.2325725 43.0656246,39.5667069 43.8004048,37.6309451 L47.6642116,27.4516802 Z" id="Fill-1" stroke="none" fill="#FFFFFF" fill-rule="evenodd"></path>
</svg>
