<?xml version="1.0" encoding="utf-8"?>
<!-- Generator: Adobe Illustrator 16.0.0, SVG Export Plug-In . SVG Version: 6.00 Build 0)  -->
<!DOCTYPE svg PUBLIC "-//W3C//DTD SVG 1.1//EN" "http://www.w3.org/Graphics/SVG/1.1/DTD/svg11.dtd">
<svg version="1.1" id="Layer_1" xmlns="http://www.w3.org/2000/svg" xmlns:xlink="http://www.w3.org/1999/xlink" x="0px" y="0px"
	 width="64px" height="34px" viewBox="0 0 64 34" enable-background="new 0 0 64 34" xml:space="preserve">
<path fill="#FFDF22" d="M44.297,16.705c-1.135,0-2.203,0.272-3.158,0.744l-2.173-3.521c0.438-0.393,0.722-0.957,0.722-1.591
	c0-0.123-0.017-0.243-0.037-0.36h3.082c0.375,0,0.679-0.304,0.679-0.679s-0.304-0.679-0.679-0.679h-3.92
	c-0.355-0.263-0.791-0.423-1.266-0.423s-0.91,0.16-1.266,0.423H32.36c-0.375,0-0.678,0.304-0.678,0.679s0.304,0.679,0.678,0.679
	h3.082c-0.021,0.117-0.037,0.237-0.037,0.36c0,1.18,0.961,2.141,2.142,2.141c0.054,0,0.103-0.012,0.154-0.016l0.265,0.43h-6.598
	h-0.624H18.649c-0.75,0-1.357,0.607-1.357,1.357c0,0.353,0.138,0.672,0.358,0.913C14.939,18.18,13,20.79,13,23.852
	c0,3.941,3.206,7.147,7.147,7.147c3.04,0,5.635-1.91,6.667-4.591h7.354c1.123,0,2.035-0.913,2.035-2.035v-2.875
	c0-0.375-0.303-0.68-0.678-0.68s-0.68,0.305-0.68,0.68v2.875c0,0.374-0.304,0.679-0.679,0.679h-6.982
	c0.066-0.392,0.109-0.79,0.109-1.2c0-2.396-1.191-4.517-3.007-5.812l0.236-0.432h4.184v0.336c0,1.123,0.913,2.037,2.036,2.037h7.286
	c0.098,0,0.191-0.017,0.285-0.029c-0.734,1.123-1.166,2.462-1.166,3.902c0,3.94,3.207,7.146,7.147,7.146s7.146-3.206,7.146-7.146
	C51.441,19.912,48.236,16.705,44.297,16.705z M25.033,23.852c0,0.416-0.058,0.814-0.156,1.199h-7.225
	c-0.375,0-0.678,0.305-0.678,0.68c0,0.373,0.304,0.679,0.678,0.679h6.65c-0.861,1.396-2.399,2.329-4.156,2.329
	c-2.693,0-4.885-2.192-4.885-4.887c0-2.693,2.192-4.886,4.885-4.886c0.665,0,1.298,0.134,1.876,0.375l-2.138,3.86
	c-0.18,0.328-0.06,0.74,0.268,0.921c0.104,0.058,0.216,0.084,0.327,0.084c0.239,0,0.472-0.126,0.595-0.353l2.115-3.818
	C24.312,20.932,25.033,22.309,25.033,23.852z M35.543,18.621h-4.8c-0.375,0-0.679-0.305-0.679-0.678v-1.015
	c0-0.374,0.304-0.679,0.679-0.679h4.8c-0.085,0.21-0.135,0.438-0.135,0.679v1.015C35.408,18.184,35.457,18.411,35.543,18.621z
	 M38.709,17.943c0,0.373-0.307,0.678-0.68,0.678h-1.404c-0.189-0.165-0.312-0.407-0.312-0.678v-1.015
	c0-0.271,0.123-0.513,0.312-0.679h1.404c0.373,0,0.68,0.305,0.68,0.679V17.943z M37.547,13.573
	c-0.682,0.001-1.236-0.554-1.236-1.235c0-0.681,0.556-1.235,1.236-1.235c0.682,0,1.234,0.555,1.234,1.235
	C38.781,13.02,38.229,13.573,37.547,13.573z M44.297,28.736c-2.695,0-4.887-2.19-4.887-4.885c0-1.51,0.688-2.859,1.767-3.758
	l2.554,4.135c0.127,0.207,0.35,0.32,0.576,0.32c0.123,0,0.245-0.031,0.355-0.101c0.318-0.197,0.418-0.615,0.221-0.935l-2.552-4.134
	c0.603-0.266,1.267-0.416,1.965-0.416c2.693,0,4.886,2.19,4.886,4.886S46.99,28.736,44.297,28.736z M33.96,21.307
	c0,0.25-0.202,0.452-0.452,0.452h-3.757c-0.25,0-0.452-0.202-0.452-0.452s0.202-0.451,0.452-0.451h3.757
	C33.758,20.854,33.96,21.057,33.96,21.307z M33.96,22.579c0,0.25-0.202,0.452-0.452,0.452h-3.757c-0.25,0-0.452-0.202-0.452-0.452
	c0-0.251,0.202-0.452,0.452-0.452h3.757C33.758,22.127,33.96,22.328,33.96,22.579z M33.96,23.852c0,0.25-0.202,0.453-0.452,0.453
	h-3.757c-0.25,0-0.452-0.203-0.452-0.453s0.202-0.451,0.452-0.451h3.757C33.758,23.398,33.96,23.602,33.96,23.852z M13,11.823v-4.24
	c0-1.111,0.909-2.02,2.019-2.02h7.32c1.111,0,2.019,0.908,2.019,2.02v4.24c0,1.11-0.908,2.02-2.019,2.02h-7.32
	C13.909,13.843,13,12.934,13,11.823z"/>
</svg>
