<?xml version="1.0" encoding="utf-8"?>
<!-- Generator: Adobe Illustrator 16.0.0, SVG Export Plug-In . SVG Version: 6.00 Build 0)  -->
<!DOCTYPE svg PUBLIC "-//W3C//DTD SVG 1.1//EN" "http://www.w3.org/Graphics/SVG/1.1/DTD/svg11.dtd">
<svg version="1.1" id="Layer_1" xmlns="http://www.w3.org/2000/svg" xmlns:xlink="http://www.w3.org/1999/xlink" x="0px" y="0px"
	 width="41px" height="41px" viewBox="-7.5 -7.5 41 41" enable-background="new -7.5 -7.5 41 41" xml:space="preserve">
<g>
	<path id="SVGID_5_" fill="#231F20" d="M13,33C1.973,33-7,24.028-7,13S1.973-7,13-7c11.026,0,20,8.973,20,20
		C33,24.026,24.028,33,13,33z M13-3.814c-9.274,0-16.816,7.545-16.816,16.816c0,9.275,7.542,16.815,16.816,16.815
		c9.273,0,16.814-7.54,16.814-16.815C29.814,3.728,22.273-3.814,13-3.814z"/>
	<path id="SVGID_1_" fill="#231F20" d="M1.116,23.099h2.951V9.406H4.12l2.34,7.988h2.287l2.287-8.012h0.053v13.716h2.979V4.181
		H10.02l-2.336,7.693H7.63L5.345,4.181H1.116V23.099L1.116,23.099z M16.109,23.099h5.822c2.498,0,4.229-1.646,4.229-5.306
		c0-2.336-0.93-3.875-2.606-4.299v-0.106c1.462-0.398,2.5-1.856,2.5-4.403c0-3.237-1.569-4.802-4.253-4.802h-5.691V23.099
		L16.109,23.099z M19.432,20.363v-5.465h1.489c1.144,0,1.864,0.796,1.864,2.681c0,1.779-0.587,2.784-1.676,2.784H19.432z
		 M19.432,12.164V6.886h1.674c0.985,0,1.622,0.768,1.622,2.519c0,1.91-0.69,2.759-1.835,2.759H19.432z"/>
</g>
</svg>
