<?xml version="1.0" encoding="utf-8"?>
<!-- Generator: Adobe Illustrator 16.0.0, SVG Export Plug-In . SVG Version: 6.00 Build 0)  -->
<!DOCTYPE svg PUBLIC "-//W3C//DTD SVG 1.1//EN" "http://www.w3.org/Graphics/SVG/1.1/DTD/svg11.dtd">
<svg version="1.1" id="Layer_1" xmlns="http://www.w3.org/2000/svg" xmlns:xlink="http://www.w3.org/1999/xlink" x="0px" y="0px"
	 width="30px" height="30px" viewBox="119 14 30 30" enable-background="new 119 14 30 30" xml:space="preserve">
<path display="none" fill-rule="evenodd" clip-rule="evenodd" fill="#231F20" d="M147.456,21.055
	c-0.946,0.405-1.983,0.721-3.11,0.855c1.127-0.72,1.938-1.755,2.389-2.97c-1.036,0.54-2.253,1.08-3.47,1.26
	c-0.991-1.035-2.344-1.71-3.966-1.71c-2.975,0-5.409,2.475-5.409,5.49c0,0.359,0.045,0.81,0.136,1.17
	c-4.508-0.181-8.474-2.341-11.178-5.67c-0.451,0.81-0.721,1.71-0.721,2.744c0,1.891,0.9,3.556,2.434,4.5
	c-0.992,0-1.803-0.27-2.524-0.63v0.045c0,2.61,1.894,4.771,4.372,5.311c-0.451,0.09-0.901,0.18-1.442,0.18
	c-0.36,0-0.631-0.045-0.991-0.135c0.676,2.16,2.658,3.735,5.047,3.78c-1.848,1.484-4.191,2.295-6.715,2.295
	c-0.451,0-0.901,0-1.307-0.045C123.434,39.1,126.273,40,129.338,40c9.961,0,15.414-8.235,15.414-15.479V23.89
	C145.789,23.08,146.734,22.09,147.456,21.055z"/>
<g>
	<path fill-rule="evenodd" clip-rule="evenodd" fill="#231F20" d="M134,17.586c3.693,0,4.131,0.015,5.59,0.084
		c1.349,0.063,2.081,0.298,2.568,0.494c0.646,0.26,1.106,0.571,1.591,1.073s0.784,0.98,1.035,1.65
		c0.188,0.506,0.414,1.266,0.476,2.665c0.066,1.514,0.081,1.968,0.081,5.8s-0.015,3.581-0.081,5.095
		c-0.062,1.398-0.287,2.159-0.476,2.665c-0.251,0.67-0.551,1.147-1.035,1.649c-0.484,0.503-0.945,0.813-1.591,1.074
		c-0.487,0.196-1.22,0.431-2.568,0.494c-1.459,0.069-1.896,0.083-5.59,0.083s-4.132-0.014-5.59-0.083
		c-1.349-0.063-2.081-0.298-2.568-0.494c-0.646-0.261-1.106-0.571-1.591-1.074c-0.484-0.502-0.784-0.979-1.035-1.649
		c-0.189-0.506-0.414-1.267-0.476-2.665c-0.067-1.514-0.081-1.263-0.081-5.095s0.014-4.286,0.081-5.8
		c0.062-1.399,0.286-2.159,0.476-2.665c0.251-0.67,0.551-1.148,1.035-1.65s0.945-0.813,1.591-1.073
		c0.487-0.196,1.22-0.431,2.568-0.494C129.869,17.601,130.307,17.586,134,17.586 M134,15c-3.757,0-4.228,0.017-5.703,0.086
		c-1.473,0.07-2.479,0.312-3.358,0.668c-0.909,0.366-1.681,0.857-2.45,1.655c-0.769,0.798-1.242,1.598-1.596,2.542
		c-0.342,0.913-0.575,1.956-0.643,3.483c-0.067,1.531-0.083,2.02-0.083,5.918c0,3.897,0.016,3.682,0.083,5.212
		c0.067,1.528,0.301,2.571,0.643,3.484c0.354,0.943,0.827,1.744,1.596,2.542c0.77,0.798,1.541,1.288,2.45,1.655
		c0.88,0.354,1.886,0.598,3.358,0.667C129.772,42.983,130.243,43,134,43s4.228-0.017,5.703-0.087
		c1.473-0.069,2.479-0.312,3.358-0.667c0.909-0.367,1.681-0.857,2.45-1.655c0.769-0.798,1.242-1.599,1.596-2.542
		c0.342-0.913,0.575-1.956,0.643-3.484c0.067-1.53,0.083-1.314,0.083-5.212c0-3.898-0.016-4.387-0.083-5.918
		c-0.067-1.527-0.301-2.57-0.643-3.483c-0.354-0.944-0.827-1.744-1.596-2.542c-0.77-0.798-1.541-1.289-2.45-1.655
		c-0.88-0.355-1.886-0.598-3.358-0.668C138.228,15.017,137.757,15,134,15"/>
	<path fill-rule="evenodd" clip-rule="evenodd" fill="#231F20" d="M134,21.981c-3.923,0-7.104,3.3-7.104,7.37s3.181,7.37,7.104,7.37
		s7.104-3.3,7.104-7.37S137.923,21.981,134,21.981 M134,34.136c-2.547,0-4.611-2.142-4.611-4.784c0-2.642,2.064-4.784,4.611-4.784
		s4.611,2.143,4.611,4.784C138.611,31.994,136.547,34.136,134,34.136"/>
	<path fill-rule="evenodd" clip-rule="evenodd" fill="#231F20" d="M143.044,21.69c0,0.951-0.743,1.723-1.66,1.723
		c-0.916,0-1.659-0.771-1.659-1.723s0.743-1.723,1.659-1.723C142.301,19.968,143.044,20.739,143.044,21.69"/>
</g>
</svg>
