<?xml version="1.0" encoding="utf-8"?>
<!-- Generator: Adobe Illustrator 16.0.0, SVG Export Plug-In . SVG Version: 6.00 Build 0)  -->
<!DOCTYPE svg PUBLIC "-//W3C//DTD SVG 1.1//EN" "http://www.w3.org/Graphics/SVG/1.1/DTD/svg11.dtd">
<svg version="1.1" id="Layer_1" xmlns="http://www.w3.org/2000/svg" xmlns:xlink="http://www.w3.org/1999/xlink" x="0px" y="0px"
	 width="30px" height="30px" viewBox="0 0.5 30 30" enable-background="new 0 0.5 30 30" xml:space="preserve">
<path fill="#231F20" d="M27.5,7.76c-0.894,0.383-1.874,0.681-2.939,0.808c1.065-0.681,1.832-1.658,2.258-2.807
	c-0.979,0.511-2.129,1.021-3.278,1.191c-0.938-0.979-2.216-1.616-3.748-1.616c-2.812,0-5.111,2.338-5.111,5.188
	c0,0.339,0.042,0.765,0.127,1.105c-4.26-0.171-8.007-2.213-10.563-5.358C3.819,7.037,3.564,7.888,3.564,8.866
	c0,1.787,0.851,3.36,2.3,4.252c-0.938,0-1.704-0.256-2.385-0.596v0.042c0,2.466,1.791,4.51,4.131,5.02
	c-0.426,0.085-0.852,0.17-1.363,0.17c-0.339,0-0.596-0.043-0.936-0.128c0.638,2.041,2.511,3.53,4.769,3.573
	c-1.747,1.401-3.961,2.168-6.345,2.168c-0.426,0-0.852,0-1.236-0.042c2.299,1.487,4.982,2.339,7.878,2.339
	c9.414,0,14.567-7.782,14.567-14.628V10.44C25.925,9.674,26.818,8.738,27.5,7.76z"/>
</svg>
